<?xml version="1.0" encoding="UTF-8"?>
<svg id="_レイヤー_2" data-name="レイヤー 2" xmlns="http://www.w3.org/2000/svg" viewBox="0 0 421.66 81.79">
  <defs>
    <style>
      .cls-1 {
        fill: #002662;
      }
    </style>
  </defs>
  <g id="_レイヤー_1-2" data-name="レイヤー 1">
    <g>
      <path class="cls-1" d="M68.63,61.4c-1.89,0-3.78.09-5.68.26.26-5.07.43-9.2,0-14.53l-2.49-31.47c-.17-2.15-.34-4.39-.43-6.62-.95,2.41-1.81,4.73-2.75,6.97l-14.79,35.17c-1.63,3.87-2.49,7.4-3.35,11.44-1.12-.09-2.24-.17-3.35-.17s-2.15.09-2.92.17c-.26-1.29-.95-3.96-1.89-6.19L14.02,17.03c-.95-2.24-1.63-4.3-2.32-6.28-.09,1.89-.26,3.78-.43,5.68l-2.67,32.77c-.26,3.01.09,10.32.77,12.47-1.29-.09-3.27-.17-5.25-.17-1.46,0-2.92,0-4.13.17.86-2.67,2.06-8.51,2.49-13.33L5.59,15.31c.43-4.39.52-9.12-.26-13.5,1.98.09,3.27.09,5.42.09,2.41,0,3.53-.09,6.11-.17.86,2.84,3.1,8.6,4.3,11.44l13.07,31.22c.86,2.15,1.63,4.39,2.49,6.62.6-1.72,1.38-3.87,2.41-6.28l13.16-30.62c1.72-4.04,2.58-6.36,4.47-12.38,1.38.17,3.44.17,5.68.17,1.81,0,3.78,0,5.59-.09-.34,3.44-.09,4.9.09,7.48l2.49,36.29c.34,5.33,1.2,10.84,3.27,16.08-1.81-.17-3.61-.26-5.25-.26Z"/>
      <path class="cls-1" d="M94.86,81.35c-2.06,0-4.47.17-7.14.43l-.34-.6c3.78-5.76,6.62-12.13,9.2-19.09l-.26-.77-1.03-2.75-8.34-20.9c-3.87-9.72-7.14-16.08-7.91-16.77,2.24,0,7.91-.26,10.15-.6.77,4.82,2.32,9.63,4.39,14.88l6.79,17.29,5.93-17.03c1.63-4.73,3.27-9.8,3.44-14.88,1.63.09,3.01.09,4.21.09,2.41,0,3.96-.09,4.73-.34l.17.77c-3.27,4.56-5.5,9.98-7.57,15.31-3.44,8.94-7.14,18.83-10.84,28.38-1.72,4.64-3.53,9.55-3.53,14.62,0,.69,0,1.38.09,2.06-.69-.09-1.38-.09-2.15-.09Z"/>
      <path class="cls-1" d="M167.27,61.83c-2.84,0-5.33-.34-10.75-.34-1.98,0-3.96.09-5.93.17.6-4.39,1.29-5.42,1.29-16.34v-28.29c0-7.05-.52-11.52-1.72-15.22,1.72.09,4.13.09,5.16.09,4.73,0,8-.26,15.14-.26,5.5,0,8.69.86,11.35,3.01,2.75,2.32,4.39,5.93,4.39,9.98,0,7.22-4.9,11.01-10.75,13.93v.17h.95c8,0,14.53,4.82,14.53,14.1,0,12.99-12.47,19.01-23.65,19.01ZM177.76,16.25c0-6.45-4.39-10.49-11.52-10.49-1.63,0-4.47.26-6.11.52-.09,3.44-.26,7.57-.26,11.01v10.15c1.38.17,2.92.17,4.39.17,7.05,0,13.5-2.84,13.5-11.35ZM167.36,31.91c-2.24,0-4.73,0-7.48.34v13.16c0,5.76.09,8.69,1.63,10.06,1.46,1.29,3.01,1.81,6.88,1.81,8.34,0,13.85-5.07,13.85-12.9,0-9.89-6.97-12.47-14.88-12.47Z"/>
      <path class="cls-1" d="M219.21,5.76c-1.55,0-2.92.09-6.11.52-.17,3.61-.34,6.02-.34,11.01v28.12c0,7.83.52,12.56,1.72,16.25-1.12-.09-3.27-.17-5.42-.17s-4.39.09-5.5.17c.95-6.11,1.12-8.17,1.12-16.34v-28.29c0-7.05-.52-11.52-1.72-15.22,1.72.09,3.78.09,4.82.09,4.3,0,7.83-.26,14.1-.26,6.62,0,9.98.69,12.9,3.01,2.84,2.32,4.39,5.93,4.39,10.32,0,8.43-5.16,12.64-12.04,15.57,3.7,4.9,6.97,9.8,10.58,14.88,4.99,7.14,9.03,12.56,13.85,15.48l-.34.77c-5.16.17-9.12.17-12.38.52l-4.21-6.88c-3.61-5.85-7.57-11.52-11.44-16.43-3.35-4.21-5.76-7.05-8.34-9.12l.26-.95c1.03.09,1.98.09,3.1.09,5.68,0,12.56-3.18,12.56-12.3,0-6.79-4.3-10.83-11.52-10.83Z"/>
      <path class="cls-1" d="M288.27,39.22c-3.61-.09-7.14-.17-10.75-.17s-7.22.09-10.75.17l-4.04,11.09c-.52,1.29-1.29,4.13-1.29,7.31,0,1.29.17,2.75.52,4.04-1.81-.09-3.61-.17-5.42-.17s-3.7.09-5.5.17l-.34-.52c2.32-4.3,4.64-8.69,6.79-14.1l14.28-35.09c2.06-4.99,2.75-6.88,3.61-10.75,1.89-.17,5.5-.77,7.48-1.2.34,2.67,1.12,4.99,2.58,8.77l14.36,37.92c3.01,7.83,5.42,12.21,7.05,14.96-1.72-.17-4.21-.17-5.93-.17-2.24,0-3.78.09-6.02.26-.77-4.73-1.98-9.12-3.7-14.02l-2.92-8.51ZM277.95,9.55l-9.37,24.68c2.92.17,5.93.17,8.94.17s5.93,0,8.94-.17l-8.51-24.68Z"/>
      <path class="cls-1" d="M326.88,1.72c1.29,2.32,2.15,4.21,5.68,8.77l23.39,30.19c1.89,2.41,3.96,5.07,6.19,7.83-.09-1.55-.17-3.01-.17-6.28v-18.23c0-7.65-.34-15.22-2.15-22.19,1.12.09,3.27.09,5.42.09,1.55,0,3.18,0,4.39-.09-1.12,3.53-1.12,15.74-1.12,27.35v22.53c0,3.61.26,7.65.77,10.92h-3.18c-1.38,0-2.67,0-3.61.09-1.29-2.06-3.01-4.64-5.16-7.4l-30.7-39.04-3.87-5.07c.09,1.03.09,2.32.09,3.7v29.76c0,6.97.34,11.95,1.98,17.03-1.46-.09-3.27-.17-4.99-.17s-3.44.09-4.64.17c1.12-5.5,1.2-9.12,1.2-14.96v-29.5c0-4.21-.26-11.87-1.63-15.39,2.06.09,3.27.09,5.33.09,2.67,0,5.59-.09,6.79-.17Z"/>
      <path class="cls-1" d="M421.66,52.8c-.86,3.01-1.55,6.02-2.24,9.2-9.37-.26-19.69-.43-29.33-.43-4.56,0-8.94,0-13.07.09,0-1.63,0-3.01-.26-4.21,3.87-5.16,5.42-7.22,7.31-10.15l19.26-29.67c2.15-3.35,4.9-7.4,7.14-11.27h-12.21c-6.28,0-12.56.6-16.86,4.99l-1.03-.17c.69-2.49,1.12-5.68,1.46-9.55,3.1.17,7.74.34,10.58.34h17.2c2.84,0,6.88,0,10.84-.17,0,1.63,0,3.18.17,4.82-3.35,4.3-4.47,5.85-6.79,9.46l-20.81,32.42c-1.98,3.18-2.58,4.39-2.58,5.59,0,1.89,2.24,2.67,7.48,2.67h9.46c5.59,0,10.15-1.2,13.16-4.47l1.12.52Z"/>
    </g>
  </g>
</svg>